<svg xmlns="http://www.w3.org/2000/svg" viewBox="0 0 640 480" width="640" height="480"><rect width="640" height="480" fill="#edf0e5"/><circle cx="570" cy="45" r="180" fill="#e0e8d9"/><circle cx="35" cy="470" r="160" fill="#f3e3d0"/><rect x="90" y="105" width="265" height="265" rx="16" fill="#fffdf8"/><path d="M110 196h225m-225 85h225" stroke="#adbfa9" stroke-width="8"/><g fill="#bdcdb5"><rect x="127" y="134" width="48" height="58" rx="6"/><rect x="194" y="145" width="48" height="47" rx="6"/><rect x="262" y="125" width="48" height="67" rx="6"/><rect x="127" y="218" width="48" height="59" rx="6"/><rect x="194" y="223" width="48" height="54" rx="6"/></g><rect x="262" y="233" width="48" height="44" rx="6" fill="#dcbda1"/><rect x="389" y="140" width="150" height="228" rx="23" fill="#1f5c4d"/><rect x="404" y="165" width="120" height="157" rx="10" fill="#fffdf8"/><g stroke="#1f5c4d"><path d="M424 210v60m12-60v60m17-60v60m9-60v60m16-60v60m18-60v60" stroke-width="6"/></g><circle cx="464" cy="344" r="9" fill="#bdcdb5"/></svg>
